<svg width="430" height="430" viewBox="0 0 430 430" fill="none" xmlns="http://www.w3.org/2000/svg">
<path d="M334.47 82.8096L332.47 121.7L331.32 144.5L319.22 381.63C319.089 384.192 317.978 386.607 316.116 388.373C314.255 390.14 311.786 391.123 309.22 391.12H120.76C118.194 391.123 115.724 390.14 113.863 388.373C112.002 386.607 110.891 384.192 110.76 381.63L98.6798 144.5L97.5098 121.7L95.5098 82.8096C95.5098 82.2791 95.7205 81.7704 96.0956 81.3954C96.4706 81.0203 96.9793 80.8096 97.5098 80.8096H332.47C333 80.8096 333.509 81.0203 333.884 81.3954C334.259 81.7704 334.47 82.2791 334.47 82.8096Z" fill="#4BB3FD"/>
<path d="M156.46 172.689V328.599M215.13 172.689V328.599M273.54 172.689V328.599" stroke="#121331" stroke-width="7" stroke-linecap="round" stroke-linejoin="round"/>
<path d="M259.16 79.6996C259.16 55.4396 236.6 37.8496 215.41 37.8496C204.558 37.8478 194.072 41.7673 185.881 48.8861C177.691 56.005 172.349 65.8436 170.84 76.5896V82.4296H259.16V79.6996Z" stroke="#121331" stroke-width="7" stroke-linecap="round" stroke-linejoin="round"/>
<path d="M334.47 82.8096L332.47 121.7L331.32 144.5L319.22 381.63C319.089 384.192 317.978 386.607 316.116 388.373C314.255 390.14 311.786 391.123 309.22 391.12H120.76C118.194 391.123 115.724 390.14 113.863 388.373C112.002 386.607 110.891 384.192 110.76 381.63L98.6798 144.5L97.5098 121.7L95.5098 82.8096C95.5098 82.2791 95.7205 81.7704 96.0956 81.3954C96.4706 81.0203 96.9793 80.8096 97.5098 80.8096H332.47C333 80.8096 333.509 81.0203 333.884 81.3954C334.259 81.7704 334.47 82.2791 334.47 82.8096Z" stroke="#121331" stroke-width="7" stroke-linecap="round" stroke-linejoin="round"/>
<path d="M342.71 75.7998H87.2998C81.777 75.7998 77.2998 80.277 77.2998 85.7998V111.7C77.2998 117.223 81.777 121.7 87.2998 121.7H342.71C348.233 121.7 352.71 117.223 352.71 111.7V85.7998C352.71 80.277 348.233 75.7998 342.71 75.7998Z" fill="#4BB3FD"/>
<g style="mix-blend-mode:multiply" opacity="0.6">
<path d="M332.49 121.699L331.32 144.529H98.6798L97.5098 121.699H332.49Z" fill="#4BB3FD"/>
</g>
<path d="M342.71 75.7998H87.2998C81.777 75.7998 77.2998 80.277 77.2998 85.7998V111.7C77.2998 117.223 81.777 121.7 87.2998 121.7H342.71C348.233 121.7 352.71 117.223 352.71 111.7V85.7998C352.71 80.277 348.233 75.7998 342.71 75.7998Z" stroke="#121331" stroke-width="7" stroke-linecap="round" stroke-linejoin="round"/>
</svg>
